<svg version="1.2" xmlns="http://www.w3.org/2000/svg" viewBox="0 0 68 73" width="68" height="73"><style></style><path  d="m25 44c3.9 0 7 3.1 7 7 0 3.9-3.1 7-7 7-3.9 0-7-3.1-7-7 0-3.9 3.1-7 7-7zm0 4c-1.7 0-3 1.3-3 3 0 1.7 1.3 3 3 3 1.7 0 3-1.3 3-3 0-1.7-1.3-3-3-3zm30-4c3.9 0 7 3.1 7 7 0 3.9-3.1 7-7 7-3.9 0-7-3.1-7-7 0-3.9 3.1-7 7-7zm0 4c-1.7 0-3 1.3-3 3 0 1.7 1.3 3 3 3 1.7 0 3-1.3 3-3 0-1.7-1.3-3-3-3zm-46.8-44h-6.2c-1.1 0-2-0.9-2-2 0-1.1 0.9-2 2-2h8c1 0 1.9 0.8 2 1.8l3.4 31.6c0.2 2.1 1.9 3.6 4 3.6h46.6c1.1 0 2 0.9 2 2 0 1.1-0.9 2-2 2h-46.6c-4.1 0-7.5-3.1-8-7.1zm29.8 3v6c0 1.1 0.9 2 2 2 1.1 0 2-0.9 2-2v-6h9c1.1 0 2 0.9 2 2v22c0 1.1-0.9 2-2 2h-22c-1.1 0-2-0.9-2-2v-22c0-1.1 0.9-2 2-2z"/></svg>