<svg xmlns="http://www.w3.org/2000/svg" version="1.1" viewBox="-5.0 -10.0 110.0 135.0">
 <path d="m93.473 50.129-0.31641-4.4453 0.66016-2.9961h-7.4922c-1.3516-0.73438-14.035-7.3672-29.836-7.4375h-0.26172c-9.5469 0-17.727 2.3359-28.137 8.0312-1.8203 0.15234-21.281 1.9453-22.555 8.6055-0.59375 3.1133-1.1484 6.957-0.42188 7.5938l0.12109 0.10547 10.203 0.99219c1.2109 2.4648 3.7422 4.1719 6.6719 4.1719 2.6797 0 5.0234-1.4297 6.332-3.5547l42.426 0.28125c1.3398 1.9727 3.6016 3.2734 6.1602 3.2734 2.6953 0 5.0547-1.4492 6.3594-3.6016l7.4219-0.46094 0.13281-0.027344c0.16406-0.054687 4.0703-1.4414 4.2969-4.9727v-3.4766zm-1.2695-3.7539 0.14844 2.0938h-2.1367l-1.4609-2.0938zm-83.176 2.707 4.2812-0.15625-1.5508 1.7812h-4.6016c0.44141-0.58594 1.082-1.125 1.8711-1.625zm13.082 14.668c-3.5508 0-6.4375-2.8867-6.4375-6.4375s2.8867-6.4375 6.4375-6.4375 6.4375 2.8867 6.4375 6.4375-2.8867 6.4375-6.4375 6.4375zm54.918 0c-3.5508 0-6.4375-2.8867-6.4375-6.4375s2.8867-6.4375 6.4375-6.4375c3.5508 0 6.4375 2.8867 6.4375 6.4375s-2.8867 6.4375-6.4375 6.4375zm13.645-4.0547-6.7578 0.41797c0.35156-0.86719 0.55078-1.8086 0.55078-2.8008 0-4.1016-3.3359-7.4375-7.4375-7.4375-4.1016 0-7.4375 3.3359-7.4375 7.4375 0 1.1328 0.26172 2.1992 0.71484 3.1602l-41.34-0.27734c0.375-0.88672 0.58203-1.8594 0.58203-2.8828 0-4.1016-3.3359-7.4375-7.4375-7.4375s-7.4375 3.3359-7.4375 7.4375c0 0.77344 0.11719 1.5156 0.33594 2.2188l-9.1992-0.89062c-0.078125-0.48828-0.15234-2.0625 0.70703-6.5625 0.023437-0.125 0.0625-0.24609 0.10156-0.36719h5.3633c0.14453 0 0.28125-0.0625 0.375-0.17188l2.457-2.8242c0.13281-0.14844 0.16016-0.36328 0.074219-0.54297-0.085938-0.17969-0.24609-0.28516-0.46875-0.28516l-3.3359 0.12109c5.4609-2.8477 17.391-3.7969 17.391-3.7969 10.297-5.6445 18.359-7.9609 27.75-7.9609h0.25781c16.367 0.070312 29.336 7.3008 29.465 7.375l0.11719 0.0625h6.5078l-0.37109 1.6875h-4.4023c-0.1875 0-0.35938 0.10156-0.44531 0.26953-0.085937 0.16406-0.074218 0.36328 0.03125 0.51562l2.1562 3.0938c0.09375 0.13281 0.24609 0.21484 0.41016 0.21484h2.4688l0.074219 1.0547 1.7383 2.0547v3.0781c-0.16406 2.625-3.1055 3.8594-3.5586 4.0391z"/>
 <path d="m56.574 36.75h-0.46875c-16.836 0.125-23.766 7.5352-24.055 7.8516l-0.78516 0.86328 48.402-1.1797-0.67969-0.79688c-0.23047-0.27734-5.9219-6.7383-22.414-6.7383zm0 1c0.17578 0 0.33594 0.007812 0.50781 0.007812l-0.37109 6.0859-3.2109 0.078125 1.8906-6.1523c0.24219-0.003906 1.1836-0.019531 1.1836-0.019531zm-2.2383 0.050781-1.8906 6.1484-18.688 0.45312c2.293-1.8633 8.7812-6.1211 20.578-6.6016zm3.375 6.0195 0.36719-6.043c11.5 0.29688 17.262 3.9258 19.281 5.5664z"/>
 <path d="m22.109 51.906c-2.9805 0-5.4062 2.4258-5.4062 5.4062s2.4258 5.4062 5.4062 5.4062 5.4062-2.4258 5.4062-5.4062-2.4258-5.4062-5.4062-5.4062zm0 9.8125c-2.4297 0-4.4062-1.9766-4.4062-4.4062s1.9766-4.4062 4.4062-4.4062 4.4062 1.9766 4.4062 4.4062-1.9766 4.4062-4.4062 4.4062z"/>
 <path d="m77.027 51.906c-2.9805 0-5.4062 2.4258-5.4062 5.4062s2.4258 5.4062 5.4062 5.4062c2.9805 0 5.4062-2.4258 5.4062-5.4062s-2.4258-5.4062-5.4062-5.4062zm0 9.8125c-2.4297 0-4.4062-1.9766-4.4062-4.4062s1.9766-4.4062 4.4062-4.4062c2.4297 0 4.4062 1.9766 4.4062 4.4062s-1.9766 4.4062-4.4062 4.4062z"/>
<text x="0.0" y="117.5" font-size="5.0" font-weight="bold" font-family="Arbeit Regular, Helvetica, Arial-Unicode, Arial, Sans-serif" fill="#000000">Created by yogi rista</text><text x="0.0" y="122.5" font-size="5.0" font-weight="bold" font-family="Arbeit Regular, Helvetica, Arial-Unicode, Arial, Sans-serif" fill="#000000">from Noun Project</text></svg>