<svg xmlns="http://www.w3.org/2000/svg" version="1.1" viewBox="-5.0 -10.0 110.0 135.0">
 <path d="m85.023 50.234 0.32422-2.0898c0.13281-0.86719-0.21484-1.6797-0.9375-2.1758l-0.64844-0.44922c-0.625-0.42969-1.3828-0.51562-2.0859-0.23828l-7.8906 3.1328c-0.64062 0.25391-1.1055 0.75781-1.3086 1.418-0.20312 0.66016-0.10156 1.3359 0.28906 1.9102l0.33594 0.49219c0.42578 0.625 1.0898 0.97656 1.8242 0.97656 0.10547 0 0.21484-0.007813 0.32031-0.023438l7.8828-1.0859c0.98438-0.13672 1.7461-0.88672 1.8984-1.8672zm-9.957 1.6914c-0.375 0.050781-0.70703-0.097656-0.92188-0.41016l-0.33594-0.49219c-0.17188-0.25391-0.21484-0.52344-0.125-0.81641 0.089844-0.29688 0.27344-0.49219 0.5625-0.60938l7.8906-3.1328c0.12109-0.046875 0.24219-0.070313 0.36328-0.070313 0.18359 0 0.36719 0.058594 0.53125 0.17188l0.64844 0.44922c0.3125 0.21484 0.46094 0.55469 0.40234 0.93359l-0.32422 2.0898c-0.066406 0.42578-0.38672 0.74219-0.8125 0.80078l-7.8828 1.0859zm-48.418-3.3828-7.8906-3.1328c-0.70312-0.27734-1.4648-0.19141-2.0859 0.23828l-0.64844 0.44922c-0.72266 0.49609-1.0703 1.3125-0.9375 2.1758l0.32422 2.0898c0.15234 0.98047 0.91406 1.7305 1.8984 1.8672l7.8828 1.0859c0.10938 0.015625 0.21484 0.023438 0.32031 0.023438 0.73438 0 1.3984-0.35156 1.8242-0.97656l0.33594-0.49219c0.39062-0.57031 0.49219-1.25 0.28906-1.9102-0.20313-0.66016-0.66797-1.1641-1.3086-1.418zm-0.03125 2.6094-0.33594 0.49219c-0.21094 0.3125-0.54688 0.46094-0.92188 0.41016l-7.8828-1.0859c-0.42969-0.058594-0.74609-0.375-0.8125-0.80078l-0.32422-2.0898c-0.058594-0.375 0.089844-0.71484 0.40234-0.93359l0.64844-0.44922c0.16797-0.11719 0.34766-0.17187 0.53125-0.17187 0.11719 0 0.24219 0.023437 0.36328 0.070312l7.8906 3.1328c0.28516 0.11328 0.46875 0.3125 0.5625 0.60938 0.089844 0.29297 0.046875 0.56641-0.125 0.81641zm-2.875 12.402-0.25-1.1172c-0.15625-0.68359-0.70313-1.1875-1.3984-1.2773l-4.2891-0.56641c-0.52734-0.070312-1.0234 0.10156-1.3984 0.48047-0.375 0.37891-0.53906 0.87891-0.46094 1.4023l0.18359 1.2578c0.10547 0.71484 0.62891 1.2617 1.3398 1.3906l4.0039 0.73438c0.10547 0.019531 0.20703 0.027344 0.3125 0.027344 0.39844 0 0.77344-0.14062 1.082-0.41406l0.35156-0.30859c0.46484-0.40625 0.66016-1.0078 0.52344-1.6094zm-1.3633 0.65625-0.35156 0.30859c-0.097656 0.085938-0.19531 0.11328-0.32422 0.089844l-4.0039-0.73438c-0.16797-0.03125-0.28516-0.15234-0.3125-0.32031l-0.18359-1.2578c-0.019531-0.12891 0.015625-0.23438 0.10547-0.32422 0.078125-0.078125 0.16016-0.11719 0.26172-0.11719 0.019532 0 0.039063 0 0.0625 0.003906l4.2891 0.56641c0.16797 0.023438 0.28516 0.12891 0.32422 0.29688l0.25 1.1172c0.035156 0.14844-0.007813 0.27344-0.12109 0.375zm67.23-5.5117c0-0.007813-0.007813-0.011719-0.007813-0.019531 0.10156-4.1445-0.24219-8.3125-1.0586-12.586-0.10156-0.53906-0.33594-0.98828-0.71875-1.3789-2.0234-2.0859-4.7891-3.6094-7.4883-5.0703 1.4883 0.18359 2.7109 0.27734 3.6953 0.27734 1.7695 0 2.7852-0.29688 3.2383-0.90234 0.68359-0.90625-0.11328-2.6328-0.64453-3.582-0.375-0.66797-1.6953-2.8359-2.9297-2.7109-1.7539 0.17578-3.1211 0.85156-4.707 1.6367l-0.10938 0.054688c-0.13672 0.066406-0.24219 0.17969-0.30469 0.32031l-0.9375 2.1836c-0.027344-0.074219-0.050781-0.14062-0.078125-0.21094-1.8398-5.0859-4.6172-12.773-10.062-13.152-7.3867-0.51172-27.098-0.39062-34.887 0.078125-5.7695 0.34766-8.4922 8.0195-10.293 13.168l-0.90234-2.1016c-0.058593-0.14062-0.16797-0.25391-0.30469-0.32031l-0.16016-0.078124c-1.5547-0.76953-2.8945-1.4297-4.6289-1.6055-1.2461-0.125-2.5859 2.0742-2.9688 2.75-0.52734 0.9375-1.3086 2.6406-0.63281 3.5352 0.45703 0.60547 1.4688 0.90234 3.2383 0.90234 1 0 2.2461-0.097657 3.7656-0.28516-2.7305 1.4766-5.5312 3.0117-7.5742 5.1172-0.37891 0.39062-0.61328 0.84375-0.71875 1.3828-0.83984 4.3789-1.1836 8.6484-1.0547 12.898-0.015625 0.10156-0.027344 0.20703-0.027344 0.3125v14.941c0 1.3945 1.2891 2.5273 2.875 2.5273h8.4336c1.5859 0 2.875-1.1328 2.875-2.5273v-3.6016c3.1211-0.11328 5.4062-0.58984 7.2148-0.96484 1.2891-0.26562 2.3047-0.48047 3.207-0.48047h30.062c0.90234 0 1.918 0.21094 3.207 0.48047 1.8125 0.375 4.1055 0.85156 7.2383 0.96484v3.4102c0 1.3945 1.2891 2.5273 2.875 2.5273h8.4336c1.5859 0 2.875-1.1328 2.875-2.5273v-14.941c0-0.14062-0.011719-0.28125-0.039062-0.41406zm-9.957-23.242c1.4219-0.70312 2.668-1.3047 4.1406-1.457 0.33203 0.09375 1.2539 1.1055 1.9336 2.4688 0.52734 1.0586 0.57422 1.668 0.52344 1.7852-0.039062 0.054688-0.48047 0.52344-3.3203 0.36719-1.5977-0.089844-3.3438-0.34766-4.418-0.51172l1.1406-2.6562zm-56.168 1.875c1.6914-4.832 4.2422-12.133 9.207-12.43 7.7539-0.46875 27.375-0.58594 34.723-0.078125 4.6172 0.32031 7.332 7.8281 8.9531 12.312 0.16016 0.44141 0.3125 0.86719 0.46094 1.2656-17.965 1.793-36.031 1.793-53.719 0 0.12109-0.33984 0.24609-0.69922 0.37891-1.0703zm-9.7344 0.89844c-0.058594-0.12891-0.007812-0.73828 0.52344-1.793 0.69141-1.3672 1.6211-2.3789 1.9531-2.4688 1.4727 0.15234 2.6445 0.72656 4.1133 1.4531l1.1406 2.6562c-1.0742 0.16406-2.8242 0.42188-4.418 0.51172-2.8398 0.16016-3.2773-0.3125-3.3125-0.35547zm9.5117 36.02c0 0.67969-0.73438 1.2539-1.6016 1.2539h-8.4336c-0.86719 0-1.6016-0.57422-1.6016-1.2539v-5.8359c0.38281 0.64063 1.0156 1.1055 1.7773 1.25 3.9023 0.74609 7.0859 1.0078 9.7266 1.0078 0.046875 0 0.085938-0.003906 0.13281-0.003906zm26.605-6.3164h-14.91c-0.14062 0-0.28906 0.015625-0.43359 0.023437 0.32422-1.5625 1.9023-2.7539 3.8047-2.7539h23.703c1.9141 0 3.4961 1.2031 3.8086 2.7773-0.28125-0.027344-0.55859-0.046875-0.82422-0.046875h-15.152zm17.277 0.24219c-0.21484-2.3711-2.4102-4.2461-5.1094-4.2461h-23.703c-2.6719 0-4.8477 1.8398-5.0977 4.1758-0.54688 0.089843-1.1211 0.20703-1.7383 0.33594-3.3867 0.70312-8.5 1.7656-17.852-0.023437-0.57812-0.10938-1.0039-0.54688-1.1133-1.1406-1.2656-6.9414-1.2148-13.789 0.15625-20.938 0.054688-0.29297 0.17188-0.51953 0.37891-0.73438 1.9492-2.0117 4.7422-3.5195 7.4375-4.9766 0.64844-0.35156 1.2578-0.68359 1.8594-1.0195 9.0859 0.94141 18.273 1.4141 27.496 1.4141 9.2344 0 18.504-0.47266 27.746-1.418 0.60156 0.33984 1.2148 0.67188 1.8633 1.0234 2.6992 1.457 5.4883 2.9648 7.4375 4.9766 0.20703 0.21094 0.32422 0.4375 0.37891 0.73438 1.3672 7.1484 1.418 13.996 0.15625 20.938-0.10938 0.59375-0.53516 1.0312-1.1133 1.1406-9.3477 1.7891-14.465 0.72656-17.852 0.023437-0.47266-0.097656-0.91406-0.1875-1.3438-0.26562zm19.629 7.1367h-8.4336c-0.86719 0-1.6016-0.57422-1.6016-1.2539v-3.3867c0.039063 0 0.074219 0.003906 0.10938 0.003906 2.6406 0 5.8242-0.26172 9.7266-1.0078 0.77734-0.14844 1.418-0.625 1.7969-1.2891v5.6797c0 0.67969-0.73438 1.2539-1.6016 1.2539zm-10.016-9.4023c0.30859 0.27344 0.68359 0.41406 1.082 0.41406 0.10156 0 0.20703-0.007813 0.3125-0.027344l4.0039-0.73438c0.71094-0.12891 1.2383-0.67578 1.3398-1.3906l0.18359-1.2578c0.078124-0.52734-0.085938-1.0234-0.46094-1.4023-0.375-0.37891-0.87109-0.55078-1.3984-0.48047l-4.2891 0.56641c-0.69531 0.09375-1.2461 0.59375-1.3984 1.2773l-0.25 1.1172c-0.13672 0.60156 0.058594 1.2031 0.52344 1.6094l0.35156 0.3125zm0.61719-2.7578c0.039062-0.16406 0.15625-0.27344 0.32422-0.29688l4.2891-0.56641c0.019531-0.003906 0.042969-0.003906 0.0625-0.003906 0.10156 0 0.1875 0.039063 0.26172 0.11719 0.089844 0.09375 0.125 0.19531 0.10547 0.32422l-0.18359 1.2578c-0.023437 0.17188-0.14062 0.29297-0.3125 0.32031l-4.0039 0.73437c-0.125 0.023438-0.22656-0.003906-0.32422-0.089843l-0.35156-0.3125c-0.11328-0.10156-0.15625-0.22656-0.12109-0.375l0.25-1.1172zm-9.4453-12.57c-12.16 0.5625-24.102 0.5625-35.488 0-0.72266-0.035156-1.4141 0.22656-1.9531 0.73828-0.56641 0.53906-0.89062 1.293-0.89062 2.0703v2.418c0 1.4922 1.1875 2.6992 2.7656 2.8086 5.7383 0.40234 11.605 0.60547 17.559 0.60547s11.992-0.20312 18.074-0.60547c1.5781-0.10547 2.7695-1.3125 2.7695-2.8086v-2.418c0-0.77344-0.32422-1.5273-0.88672-2.0664-0.53906-0.51562-1.2305-0.77734-1.9531-0.74609zm1.5664 5.2305c0 0.81641-0.67969 1.4805-1.5781 1.5391-12.109 0.80469-24.043 0.80469-35.461 0-0.90234-0.0625-1.582-0.72656-1.582-1.5391v-2.418c0-0.42969 0.17969-0.84766 0.49219-1.1484 0.28516-0.26953 0.64453-0.41016 1.0117-0.39062 11.426 0.56641 23.406 0.56641 35.609 0 0.37109-0.015625 0.73438 0.12109 1.0156 0.39453 0.3125 0.29688 0.49219 0.71484 0.49219 1.1445z"/>
<text x="0.0" y="117.5" font-size="5.0" font-weight="bold" font-family="Arbeit Regular, Helvetica, Arial-Unicode, Arial, Sans-serif" fill="#000000">Created by Ar2ar</text><text x="0.0" y="122.5" font-size="5.0" font-weight="bold" font-family="Arbeit Regular, Helvetica, Arial-Unicode, Arial, Sans-serif" fill="#000000">from Noun Project</text></svg>